<svg xmlns="http://www.w3.org/2000/svg" fill="none" viewBox="0 0 48 49">
  <path fill="currentColor" fill-rule="evenodd"
    d="M14 8.25a2 2 0 0 1 2 2v2h2a2 2 0 0 1 0 4h-2v2a2 2 0 0 1-4 0v-2h-2a2 2 0 1 1 0-4h2v-2a2 2 0 0 1 2-2Zm0 20a2 2 0 0 1 2 2v2h2a2 2 0 0 1 0 4h-2v2a2 2 0 0 1-4 0v-2h-2a2 2 0 1 1 0-4h2v-2a2 2 0 0 1 2-2Zm14-20a2 2 0 0 1 1.934 1.488l2.358 8.912L39 22.518a2 2 0 0 1 0 3.464l-6.708 3.87-2.36 8.91a2 2 0 0 1-3.866 0l-2.358-8.912L17 25.982a2 2 0 0 1 0-3.464l6.708-3.87 2.36-8.91A2 2 0 0 1 28 8.25Z"
    clip-rule="evenodd" />
</svg>
